<?xml version="1.0" encoding="utf-8"?>
<svg version="1.1" id="Layer_1" xmlns="http://www.w3.org/2000/svg" xmlns:xlink="http://www.w3.org/1999/xlink" x="0px" y="0px"
	 viewBox="0 0 130 57.4" style="enable-background:new 0 0 130 57.4;" xml:space="preserve">
<style type="text/css">
	.st0{fill:#007531;}
	.st1{fill:#FCBC00;}
</style>
<g id="Layer_2_1_">
	<g id="Layer_1-2">
		<path class="st0" d="M30.8,57c-4.6,0-8.1-3.3-8.1-7.7s3.5-7.7,8.1-7.7s8.1,3.3,8.1,7.7S35.4,57,30.8,57 M30.8,45.5
			c-2.1,0-3.7,1.7-3.7,3.9c0,2.2,1.6,3.9,3.7,3.9s3.7-1.7,3.7-3.9C34.5,47.2,32.9,45.5,30.8,45.5 M67.2,56.5V42.2
			c0-0.1-0.1-0.2-0.2-0.2l0,0h-3.9c-0.1,0-0.2,0.1-0.2,0.2l0,0v14.3c0,0.1,0.1,0.2,0.2,0.2c0,0,0,0,0,0H67
			C67.1,56.7,67.2,56.6,67.2,56.5C67.2,56.5,67.2,56.5,67.2,56.5 M91,57c-4.6,0-8.1-3.3-8.1-7.7s3.5-7.7,8.1-7.7s8.1,3.3,8.1,7.7
			S95.6,57,91,57 M91,45.5c-2.1,0-3.7,1.7-3.7,3.9s1.6,3.9,3.7,3.9c2.1,0,3.7-1.7,3.7-3.9S93.1,45.5,91,45.5 M115,56.5v-9.1
			c0-3.8-1.8-5.7-5.3-5.7c-1.7,0-3.4,0.7-4.5,2v-1.4c0-0.1-0.1-0.2-0.2-0.2c0,0,0,0,0,0h-3.8c-0.1,0-0.2,0.1-0.2,0.2c0,0,0,0,0,0
			v14.2c0,0.1,0.1,0.2,0.2,0.2c0,0,0,0,0,0h3.9c0.1,0,0.2-0.1,0.2-0.2c0,0,0,0,0,0v-6.6c0-0.6,0.1-1.2,0.2-1.7
			c0.4-1.5,1.8-2.5,3.3-2.5c1.3,0,1.8,0.6,1.8,2.4v8.4c0,0.1,0.1,0.2,0.2,0.2h3.9C114.9,56.7,115,56.6,115,56.5 M20.6,56.7h-4
			c-0.1,0-0.2-0.1-0.2-0.2l0,0c0-4.5-0.3-9.6-0.5-11.2c-1.5,2.1-2.8,4.4-3.8,6.8c0,0.1-0.1,0.1-0.2,0.1H9.7c-0.1,0-0.2,0-0.2-0.1
			c-1-2.4-2.3-4.7-3.8-6.8C5.6,46.9,5.2,52,5.2,56.5c0,0.1-0.1,0.2-0.2,0.2c0,0,0,0,0,0h-4c-0.1,0-0.2-0.1-0.2-0.2c0,0,0,0,0,0
			c0-6.1,0.4-14.1,1.5-18.2c0-0.1,0.1-0.1,0.2-0.2h3.1c0.1,0,0.1,0,0.1,0.1c2,2.2,3.7,4.7,5,7.3c1.4-2.6,3-5.1,5-7.3
			c0,0,0.1-0.1,0.1-0.1h3.1c0.1,0,0.2,0.1,0.2,0.2c1,4.1,1.5,12.1,1.5,18.2C20.8,56.6,20.7,56.7,20.6,56.7
			C20.6,56.7,20.6,56.7,20.6,56.7 M45.3,56.5v-5.7c0-0.7,0.1-1.4,0.3-2.1c0.4-1.5,1.8-2.6,3.4-2.6c0.2,0,0.5,0,0.7,0
			c0.1,0,0.1,0,0.2,0c0,0,0.1-0.1,0.1-0.1v-3.9c0-0.1-0.1-0.2-0.2-0.2c-0.2,0-0.4,0-0.5,0c-1.6,0-3.1,0.8-4,2.2v-1.8
			c0-0.1-0.1-0.2-0.2-0.2h-3.8c-0.1,0-0.2,0.1-0.2,0.2v14.3c0,0.1,0.1,0.2,0.2,0.2l0,0h3.9C45.2,56.7,45.3,56.6,45.3,56.5 M56,56.7
			h-3.9c-0.1,0-0.2-0.1-0.2-0.2c0,0,0,0,0,0V42.2c0-0.1,0.1-0.2,0.2-0.2c0,0,0,0,0,0h3.8c0.1,0,0.2,0.1,0.2,0.2c0,0,0,0,0,0V44
			c0.9-1.3,2.4-2.1,4-2.2c0.2,0,0.4,0,0.5,0c0.1,0,0.2,0.1,0.2,0.2v3.8c0,0.1,0,0.1-0.1,0.1c0,0-0.1,0.1-0.2,0c-0.2,0-0.5,0-0.7,0
			c-1.6,0-3,1.1-3.4,2.6c-0.2,0.7-0.3,1.4-0.3,2.1v5.7C56.2,56.6,56.2,56.7,56,56.7C56.1,56.7,56,56.7,56,56.7 M81.4,52.1L81.4,52.1
			c0,3.1-2.3,4.8-6.2,4.8c-2.3,0-4.1-0.8-6.1-2.2c-0.1,0-0.1-0.1-0.1-0.2c0,0,0-0.1,0-0.1l1.7-2.6c0-0.1,0.1-0.1,0.2-0.1
			c0,0,0.1,0,0.1,0l0,0c1.7,1.1,2.9,1.6,4.4,1.6c1,0,1.6-0.3,1.6-0.9v-0.1c0-0.7-0.6-1-2.2-1.5l-0.6-0.2c-2.5-0.7-4.8-1.8-4.8-4.6
			v-0.1c0-2.8,2.3-4.6,5.9-4.6c1.8,0,3.5,0.5,5.1,1.4c0.1,0,0.1,0.1,0.1,0.2c0,0,0,0.1,0,0.1L79,45.9c0,0.1-0.1,0.1-0.2,0.1
			c0,0-0.1,0-0.1,0l0,0c-1.5-0.7-2.4-1-3.4-1c-0.9,0-1.5,0.4-1.5,0.9v0.1c0,0.7,0.9,1,2.4,1.4l0.5,0.2
			C79.1,48.2,81.4,49.4,81.4,52.1 M124.4,47.5l-0.5-0.2c-1.5-0.4-2.4-0.7-2.4-1.4v-0.1c0-0.6,0.6-0.9,1.5-0.9c1,0,2,0.3,3.4,1l0,0
			c0,0,0.1,0,0.1,0c0.1,0,0.1,0,0.2-0.1l1.6-2.6c0,0,0-0.1,0-0.1c0-0.1,0-0.1-0.1-0.2c-1.6-0.9-3.3-1.4-5.1-1.4
			c-3.6,0-5.9,1.7-5.9,4.6v0.1c0,2.8,2.3,3.9,4.8,4.6l0.6,0.2c1.5,0.5,2.2,0.8,2.2,1.5v0.1c-0.1,0.6-0.6,0.9-1.6,0.9
			c-1.5,0-2.7-0.5-4.4-1.6l0,0c0,0-0.1,0-0.1,0c-0.1,0-0.1,0-0.2,0.1l-1.7,2.6c0,0,0,0.1,0,0.1c0,0.1,0,0.1,0.1,0.2
			c2,1.4,3.8,2.2,6.1,2.2c3.9,0,6.2-1.7,6.2-4.7v-0.1C129.1,49.5,126.8,48.3,124.4,47.5 M67.6,36.8c0,1.5-1.2,2.7-2.7,2.7
			c-1.5,0-2.7-1.2-2.7-2.7c0-1.5,1.2-2.7,2.7-2.7c0,0,0,0,0,0C66.4,34.2,67.6,35.3,67.6,36.8C67.6,36.8,67.6,36.8,67.6,36.8"/>
		<path class="st1" d="M62.4,26c0,1.5-1.2,2.8-2.8,2.8s-2.8-1.2-2.8-2.8c0-1.5,1.2-2.8,2.8-2.8c0,0,0,0,0,0
			C61.1,23.2,62.3,24.5,62.4,26 M74.8,14.7c0,1.5-1.2,2.8-2.7,2.8s-2.8-1.2-2.8-2.7c0-1.5,1.2-2.8,2.7-2.8c0,0,0,0,0,0
			C73.5,11.9,74.8,13.2,74.8,14.7C74.8,14.7,74.8,14.7,74.8,14.7 M68.2,6.3c0,3.8-3.3,5.9-3.3,5.9s-3.3-2.1-3.3-5.9s3.3-5.9,3.3-5.9
			S68.2,2.5,68.2,6.3 M54.3,12c0,0-0.8,3.8,1.9,6.5c2.7,2.7,6.5,1.8,6.5,1.8s0.8-3.8-1.9-6.5C58.1,11.2,54.3,12,54.3,12 M49.9,18.3
			c3.3,1.9,3.5,5.7,3.5,5.7s-3.5,1.8-6.8-0.1c-3.3-1.9-3.5-5.8-3.5-5.8S46.6,16.4,49.9,18.3 M48.2,30.8c0,0,0.9,3.8,4.4,5.1
			c3.6,1.3,6.7-1.1,6.7-1.1s-0.8-3.8-4.4-5.1S48.2,30.8,48.2,30.8 M72,26.8c-1.6,3.4-5.5,3.9-5.5,3.9S64.4,27.4,66,24
			s5.5-3.9,5.5-3.9S73.6,23.3,72,26.8 M86.9,18.2c0,0-3.5-1.8-6.8,0.1c-3.3,1.9-3.5,5.8-3.5,5.8s3.5,1.8,6.8-0.1
			C86.7,22,86.9,18.2,86.9,18.2 M77.5,35.9c-3.6,1.3-6.7-1.1-6.7-1.1s0.8-3.8,4.4-5.1s6.7,1,6.7,1S81.1,34.6,77.5,35.9"/>
	</g>
</g>
</svg>
